<svg width="1694" height="581" viewBox="0 0 1694 581" fill="none" xmlns="http://www.w3.org/2000/svg">
<path d="M0 453C0 275.717 143.717 132 321 132H493V511H0V453Z" fill="#473939"/>
<path fill-rule="evenodd" clip-rule="evenodd" d="M574 70C557.431 70 544 83.4315 544 100V511H951C989.66 511 1021 479.66 1021 441V140C1021 101.34 989.66 70 951 70H574ZM914.375 422.375C949.351 387.4 969 339.963 969 290.5H914.501C929.86 251.553 927.953 206.222 905.393 167.147C866.126 99.1348 779.159 75.8321 711.147 115.099C649.278 150.819 624.407 226.011 649.977 290.5L596 290.5C596 339.963 615.649 387.4 650.625 422.375C685.6 457.351 733.037 477 782.5 477C831.963 477 879.4 457.351 914.375 422.375ZM807 170C751.772 170 707 214.772 707 270C707 281.046 715.954 290 727 290H757C812.228 290 857 245.228 857 190V170H807Z" fill="#9E6464"/>
<path fill-rule="evenodd" clip-rule="evenodd" d="M1423.95 18.9796C1396.3 -5.54364 1354.7 -5.54365 1327.05 18.9796L1082.55 235.892C1049.81 264.937 1049.81 316.063 1082.55 345.108L1327.05 562.02C1354.7 586.544 1396.3 586.544 1423.95 562.02L1668.45 345.108C1701.19 316.063 1701.19 264.937 1668.45 235.892L1423.95 18.9796ZM1472.87 200.905L1376 164L1279.13 200.905L1239 290L1279.13 379.095L1376 416L1472.87 379.095L1513 290L1472.87 200.905Z" fill="#AF9A9A"/>
</svg>
